<!-- Copyright 2000-2022 JetBrains s.r.o. and contributors. Use of this source code is governed by the Apache 2.0 license. -->
<svg xmlns="http://www.w3.org/2000/svg" width="16" height="16" viewBox="0 0 16 16" fill="#6C707E">
<path d="M3.35 12V6.1H1.37V4.87H2.49C2.73 4.87 2.95 4.82 3.13 4.72C3.32 4.61 3.46 4.46 3.56 4.27C3.66 4.08 3.71 3.86 3.71 3.6H3.72H4.82V12H3.35ZM7.07 10.4H8.67V12H7.07V10.4ZM7.07 5.66H8.67V7.26H7.07V5.67ZM11.96 12V6.1H9.99V4.87H11.1C11.35 4.87 11.56 4.82 11.75 4.72C11.93 4.61 12.08 4.46 12.18 4.27C12.28 4.08 12.33 3.86 12.33 3.6H12.33H13.43V12H11.96Z"/>
</svg>
